<?xml version="1.0" encoding="UTF-8"?>
<svg version="1.1" viewBox="0 0 100 100" xmlns="http://www.w3.org/2000/svg" xmlns:xlink="http://www.w3.org/1999/xlink">
    <!--Generated by IJSVG (https://github.com/iconjar/IJSVG)-->
    <path d="M92,37h-5v-12.9c0,-0.8 -0.3,-1.6 -0.9,-2.1l-19.1,-19.1c-0.5,-0.6 -1.3,-0.9 -2.1,-0.9h-45.9c-1.6,0 -3.1,0.6 -4.2,1.8c-1.2,1.1 -1.8,2.6 -1.8,4.2v29h-4.9c-3.3,0 -6,2.7 -6,6l-0.1,31.5c0,1.6 0.6,3.1 1.8,4.2c1.1,1.1 2.7,1.8 4.2,1.8h5v11.5c0,1.6 0.6,3.1 1.8,4.2c1.1,1.1 2.7,1.8 4.2,1.8h62c1.6,0 3.1,-0.6 4.2,-1.8c1.1,-1.1 1.8,-2.6 1.8,-4.2v-11.5h5c3.3,0 6,-2.7 6,-6v-31.5c0,-3.3 -2.7,-6 -6,-6Zm-11.8,-15.3h-12.9c-0.5,0 -1,-0.2 -1.4,-0.6c-0.4,-0.4 -0.6,-0.9 -0.6,-1.4v-12.9l14.9,14.9Zm-63.2,-13.7c0,-0.5 0.2,-1 0.6,-1.4c0.3,-0.4 0.8,-0.6 1.4,-0.6h42.3v13.7c0,1.6 0.6,3.1 1.8,4.2c1.1,1.1 2.6,1.8 4.2,1.8h15.8v11.3h-66.1v-29Zm66,84c0,0.5 -0.2,1 -0.6,1.4c-0.3,0.4 -0.8,0.6 -1.4,0.6h-62c-0.5,0 -1,-0.2 -1.4,-0.6c-0.4,-0.4 -0.6,-0.9 -0.6,-1.4v-11.5h66v11.5Zm11,-17.5c0,1.1 -0.9,2 -2,2h-84c-0.5,0 -1,-0.2 -1.4,-0.6c-0.4,-0.4 -0.6,-0.9 -0.6,-1.4l0.1,-31.5c0,-1.1 0.9,-2 2,-2h83.9c1.1,0 2,0.9 2,2v31.5Z" fill="#000"></path>
    <g transform="matrix(4.38095,0,0,4.33497,12.6388,-12.8932)">
        <path fill="#000" d="M3.053,14.516h2.197c0.251,0 0.45,-0.199 0.45,-0.45c0,-0.251 -0.199,-0.45 -0.45,-0.45h-2.699c-0.277,0 -0.502,0.225 -0.502,0.502v4.818c0,0.277 0.225,0.502 0.502,0.502h2.794c0.251,0 0.45,-0.199 0.45,-0.45c0,-0.251 -0.199,-0.45 -0.45,-0.45h-2.292v-1.592h1.634c0.243,0 0.442,-0.199 0.442,-0.441c0,-0.242 -0.199,-0.441 -0.442,-0.441h-1.634v-1.548Z"></path>
        <path fill="#000" d="M9.73,19.282c0.104,0.147 0.243,0.225 0.416,0.225c0.276,0 0.501,-0.225 0.501,-0.502c0,-0.112 -0.034,-0.208 -0.086,-0.277l-1.618,-2.266l1.505,-2.119c0.061,-0.087 0.096,-0.182 0.096,-0.294c0,-0.277 -0.225,-0.502 -0.502,-0.502c-0.173,0 -0.312,0.069 -0.407,0.207l-1.237,1.843l-1.237,-1.843c-0.095,-0.138 -0.233,-0.207 -0.406,-0.207c-0.277,0 -0.502,0.225 -0.502,0.502c0,0.112 0.035,0.207 0.095,0.294l1.505,2.119l-1.617,2.266c-0.052,0.069 -0.087,0.165 -0.087,0.277c0,0.277 0.225,0.502 0.502,0.502c0.173,0 0.311,-0.078 0.415,-0.225l1.332,-1.972l1.332,1.972Z"></path>
        <path fill="#000" d="M12.265,14.516h2.197c0.251,0 0.45,-0.199 0.45,-0.45c0,-0.251 -0.199,-0.45 -0.45,-0.45h-2.699c-0.277,0 -0.502,0.225 -0.502,0.502v4.818c0,0.277 0.225,0.502 0.502,0.502h2.794c0.251,0 0.45,-0.199 0.45,-0.45c0,-0.251 -0.199,-0.45 -0.45,-0.45h-2.292v-1.592h1.635c0.242,0 0.441,-0.199 0.441,-0.441c0,-0.242 -0.199,-0.441 -0.441,-0.441h-1.635v-1.548Z"></path>
    </g>
</svg>